<svg width="81" height="28" viewBox="0 0 81 28" fill="none" xmlns="http://www.w3.org/2000/svg">
<path d="M7.12109 19.7909C7.12109 19.8702 7.1592 19.9448 7.22445 19.99C8.51969 20.8866 10.1682 21.4659 12.2103 21.4659C15.8143 21.4659 17.6927 19.5028 17.6927 17.1471C17.6927 14.7041 16.273 13.5044 13.5427 12.3048C11.839 11.5413 10.2664 11.0178 10.2664 9.79635C10.2664 8.88023 11.1401 8.22586 12.7127 8.22586C14.0274 8.22586 15.0352 8.58064 15.9167 9.22086C16.0874 9.34482 16.3385 9.22854 16.3385 9.01777V6.91634C16.3385 6.83496 16.2984 6.75852 16.23 6.71428C15.2246 6.06427 14.0173 5.73926 12.6472 5.73926C9.72032 5.73926 7.5361 7.28793 7.5361 9.79635C7.5361 12.1739 9.30532 13.3299 11.5769 14.2897C13.9577 15.293 14.9843 15.7947 14.9843 17.1471C14.9843 18.1068 14.0014 19.023 12.0574 19.023C10.1996 19.023 8.71891 18.3722 7.55474 17.3894C7.38798 17.2487 7.12109 17.3627 7.12109 17.5807V19.7909Z" fill="#231842"/>
<path d="M19.1463 15.6857C19.1463 19.0448 21.7455 21.5096 25.1529 21.5096C26.4622 21.5096 27.6899 21.1629 28.599 20.4696C28.6581 20.4246 28.6914 20.354 28.6914 20.2798V18.3643C28.6914 18.1465 28.4229 18.0308 28.2507 18.1644C27.3538 18.8598 26.3538 19.132 25.3058 19.132C23.2526 19.132 21.7455 17.6706 21.7455 15.6857C21.7455 13.7007 23.2526 12.2393 25.3058 12.2393C26.3553 12.2393 27.3565 12.5283 28.2543 13.2166C28.4262 13.3484 28.6914 13.2326 28.6914 13.0161V11.0938C28.6914 11.0183 28.6569 10.9467 28.5962 10.9017C27.6874 10.2281 26.4609 9.86178 25.1529 9.86178C21.7455 9.86178 19.1463 12.3266 19.1463 15.6857Z" fill="#231842"/>
<path d="M30.6333 20.9582C30.6333 21.0941 30.7435 21.2042 30.8796 21.2042H32.9862C33.1222 21.2042 33.2325 21.0941 33.2325 20.9582V15.4239C33.2325 13.6135 34.3901 12.4793 36.203 12.4793C36.4905 12.4793 36.757 12.5002 36.9953 12.5348C37.1505 12.5573 37.2952 12.4407 37.2952 12.2841V10.2597C37.2952 10.1425 37.2119 10.0433 37.0953 10.0302C36.9262 10.0113 36.6942 9.99266 36.5088 9.99266C34.9362 9.99266 33.7567 10.7125 33.2325 11.8467V10.4567C33.2325 10.3209 33.1222 10.2108 32.9862 10.2108H30.8796C30.7435 10.2108 30.6333 10.3209 30.6333 10.4567V20.9582Z" fill="#231842"/>
<path d="M40.4546 8.92385C41.2846 8.92385 42.0054 8.24767 42.0054 7.37518C42.0054 6.50269 41.2846 5.82651 40.4546 5.82651C39.6028 5.82651 38.882 6.50269 38.882 7.37518C38.882 8.24767 39.6028 8.92385 40.4546 8.92385ZM39.1441 20.9582C39.1441 21.0941 39.2543 21.2042 39.3904 21.2042H41.5188C41.6549 21.2042 41.7651 21.0941 41.7651 20.9582V10.4567C41.7651 10.3209 41.6549 10.2108 41.5188 10.2108H39.3904C39.2543 10.2108 39.1441 10.3209 39.1441 10.4567V20.9582Z" fill="#231842"/>
<path d="M44.0714 20.9582C44.0714 21.0941 44.1816 21.2042 44.3177 21.2042H46.4461C46.5822 21.2042 46.6924 21.0941 46.6924 20.9582V19.6119C47.0638 20.6371 48.3525 21.4441 50.209 21.4441C53.3106 21.4441 55.7133 18.9575 55.7133 15.7075C55.7133 12.4574 53.3106 9.97084 50.209 9.97084C48.3525 9.97084 47.0638 10.7779 46.6924 11.8031V6.43738C46.6924 6.27964 46.5459 6.16268 46.3918 6.19749L44.2633 6.67846C44.1511 6.70382 44.0714 6.80343 44.0714 6.91835V20.9582ZM46.4959 15.7075C46.4959 13.788 47.9593 12.3484 49.8596 12.3484C51.7162 12.3484 53.1141 13.788 53.1141 15.7075C53.1141 17.627 51.7162 19.0666 49.8596 19.0666C47.9593 19.0666 46.4959 17.627 46.4959 15.7075Z" fill="#231842"/>
<path d="M57.0503 15.8165C57.0503 19.2847 59.4093 21.5314 62.8603 21.5314C64.7169 21.5314 65.8194 21.1651 66.8176 20.4915C66.884 20.4466 66.923 20.3712 66.923 20.2911V18.5389C66.923 18.3243 66.659 18.2037 66.4809 18.3237C65.7963 18.7849 64.6737 19.2411 62.9695 19.2411C61.0037 19.2411 59.7369 18.1286 59.6495 16.3837H67.8577C67.9843 16.3837 68.0905 16.2879 68.0991 16.1618C68.1243 15.7936 68.1243 15.4457 68.1243 15.4457C68.1243 12.392 65.9838 9.94903 62.7511 9.94903C59.4748 9.94903 57.0503 12.1957 57.0503 15.7075V15.8165ZM59.715 14.5296C59.8024 13.2209 61.1348 12.1739 62.7511 12.1739C64.2582 12.1739 65.4596 13.2427 65.4596 14.5296H59.715Z" fill="#231842"/>
<mask id="mask0_1087_64210" style="mask-type:alpha" maskUnits="userSpaceOnUse" x="67" y="0" width="14" height="11">
<path d="M80.6992 6.62529C80.8533 6.5904 80.9999 6.70746 81 6.86552V9.20927C80.9999 9.32421 80.9205 9.42394 80.8086 9.44951L74.3604 10.9095C74.2063 10.9444 74.0596 10.8273 74.0596 10.6692V8.32549C74.0598 8.21048 74.1398 8.11064 74.252 8.08525L80.6992 6.62529ZM80.6992 2.52959C80.8532 2.49472 80.9998 2.61189 81 2.76982V5.11357C81 5.22876 80.9199 5.32838 80.8076 5.35381L67.4199 8.38603C67.2659 8.42093 67.1191 8.3039 67.1191 8.1458V5.80205C67.1193 5.68707 67.1985 5.58729 67.3105 5.56181L80.6992 2.52959ZM73.7588 0.00614927C73.9127 -0.0286322 74.0593 0.0885399 74.0596 0.246384V2.59013C74.0596 2.70532 73.9794 2.80495 73.8672 2.83037L67.4199 4.29131C67.2659 4.3262 67.1191 4.2082 67.1191 4.05009V1.70732C67.1191 1.59224 67.1985 1.49263 67.3105 1.46709L73.7588 0.00614927Z" fill="white"/>
</mask>
<g mask="url(#mask0_1087_64210)">
<path d="M195.101 -16.1221H60.5972C55.0743 -16.1221 50.5972 -11.6449 50.5972 -6.12207V12.4509C50.5972 17.9738 55.0743 22.4509 60.5972 22.4509H195.101C200.624 22.4509 205.101 17.9738 205.101 12.4509V-6.12207C205.101 -11.6449 200.624 -16.1221 195.101 -16.1221Z" fill="#171633"/>
<mask id="mask1_1087_64210" style="mask-type:alpha" maskUnits="userSpaceOnUse" x="59" y="-15" width="138" height="37">
<path d="M186.651 -14.6904H69.0464C63.5235 -14.6904 59.0464 -10.2133 59.0464 -4.69043V11.6978C59.0464 17.2206 63.5236 21.6978 69.0464 21.6978H186.651C192.174 21.6978 196.651 17.2206 196.651 11.6978V-4.69043C196.651 -10.2133 192.174 -14.6904 186.651 -14.6904Z" fill="#171633"/>
</mask>
<g mask="url(#mask1_1087_64210)">
<g filter="url(#filter0_f_1087_64210)">
<path d="M86.2045 7.2706C84.5285 10.7547 77.0335 14.3087 71.7699 12.5857C66.5062 10.8627 61.4033 8.34652 63.0697 3.45007C64.8571 -1.80154 73.2572 -6.3992 77.8392 -0.03138C82.4213 6.33644 87.8805 3.78649 86.2045 7.2706Z" fill="url(#paint0_linear_1087_64210)"/>
</g>
</g>
</g>
<defs>
<filter id="filter0_f_1087_64210" x="54.7485" y="-11.1299" width="39.7656" height="32.1641" filterUnits="userSpaceOnUse" color-interpolation-filters="sRGB">
<feFlood flood-opacity="0" result="BackgroundImageFix"/>
<feBlend mode="normal" in="SourceGraphic" in2="BackgroundImageFix" result="shape"/>
<feGaussianBlur stdDeviation="4" result="effect1_foregroundBlur_1087_64210"/>
</filter>
<linearGradient id="paint0_linear_1087_64210" x1="67.2699" y1="1.65736" x2="81.8918" y2="10.2204" gradientUnits="userSpaceOnUse">
<stop stop-color="#171633"/>
<stop offset="0.44" stop-color="#4535FF"/>
<stop offset="1" stop-color="#FF579E"/>
</linearGradient>
</defs>
</svg>
