<svg width="16" height="16" viewBox="0 0 16 16" fill="none" xmlns="http://www.w3.org/2000/svg">
<g id="Logo Mark">
<g id="Vector">
<path d="M8.00004 11.284C8.00004 11.1521 8.09191 11.0378 8.22129 11.0087L15.6534 9.33645C15.831 9.29649 16 9.43074 16 9.61179V12.2953C16 12.4272 15.9081 12.5416 15.7788 12.5707L8.3466 14.2429C8.16902 14.2829 8.00004 14.1486 8.00004 13.9676V11.284Z" fill="white"/>
<path d="M0 8.39425C0 8.26234 0.0918627 8.14801 0.221246 8.1189L15.6534 4.64663C15.8309 4.60668 15.9999 4.74093 15.9999 4.92198V7.6055C15.9999 7.73741 15.908 7.85174 15.7787 7.88085L0.34656 11.3531C0.168973 11.3931 0 11.2588 0 11.0778V8.39425Z" fill="white"/>
<path d="M0 3.70468C0 3.57277 0.0918627 3.45845 0.221246 3.42933L7.6534 1.75708C7.83098 1.71712 7.99996 1.85137 7.99996 2.03242V4.71595C7.99996 4.84786 7.90809 4.96218 7.77871 4.99129L0.34656 6.66355C0.168973 6.70351 0 6.56926 0 6.3882V3.70468Z" fill="white"/>
</g>
</g>
</svg>
