<svg width="51" height="40" viewBox="0 0 51 40" fill="#ff5466" xmlns="http://www.w3.org/2000/svg">
<path d="M25.5002 30.509C25.5002 30.0869 25.7925 29.721 26.2042 29.6279L49.8532 24.2766C50.4183 24.1488 50.9559 24.5784 50.9559 25.1577V33.745C50.9559 34.1671 50.6636 34.533 50.2519 34.6261L26.6029 39.9773C26.0379 40.1052 25.5002 39.6756 25.5002 39.0962V30.509Z"/>
<path d="M0.0441895 21.2616C0.0441895 20.8395 0.336495 20.4736 0.748192 20.3805L49.8529 9.26923C50.418 9.14136 50.9557 9.57096 50.9557 10.1503V18.7376C50.9557 19.1597 50.6633 19.5256 50.2517 19.6187L1.14694 30.73C0.581859 30.8578 0.0441895 30.4282 0.0441895 29.8489V21.2616Z"/>
<path d="M0.0441895 6.25497C0.0441895 5.83287 0.336495 5.46703 0.748192 5.37387L24.3972 0.0226531C24.9623 -0.105211 25.4999 0.32439 25.4999 0.903753V9.49104C25.4999 9.91314 25.2076 10.279 24.7959 10.3721L1.14694 15.7234C0.581859 15.8512 0.0441895 15.4216 0.0441895 14.8423V6.25497Z"/>
</svg>
