<svg xmlns="http://www.w3.org/2000/svg" width="44" height="44" viewBox="0 0 44 44" fill="none">
  <path d="M22.0001 31.0311C22.0001 30.6684 22.2527 30.354 22.6085 30.2739L43.047 25.6752C43.5353 25.5654 44 25.9345 44 26.4324V33.8121C44 34.1749 43.7474 34.4893 43.3916 34.5693L22.9532 39.168C22.4648 39.2779 22.0001 38.9087 22.0001 38.4108V31.0311Z" fill="white" fill-opacity="0.2"/>
  <path d="M0 23.0842C0 22.7214 0.252622 22.407 0.608428 22.327L43.0467 12.7782C43.5351 12.6684 43.9998 13.0375 43.9998 13.5354V20.9151C43.9998 21.2779 43.7471 21.5923 43.3913 21.6723L0.953039 31.2211C0.464676 31.331 0 30.9618 0 30.4639V23.0842Z" fill="white" fill-opacity="0.2"/>
  <path d="M0 10.1879C0 9.82512 0.252622 9.51073 0.608428 9.43067L21.0468 4.83197C21.5352 4.72208 21.9999 5.09127 21.9999 5.58916V12.9689C21.9999 13.3316 21.7473 13.646 21.3915 13.7261L0.953039 18.3248C0.464676 18.4346 0 18.0655 0 17.5676V10.1879Z" fill="white" fill-opacity="0.2"/>
</svg>
