<svg width="1440" height="1024" viewBox="0 0 1440 1024" fill="none" xmlns="http://www.w3.org/2000/svg">
<g mask="url(#mask0_2832_5080)">
<g filter="url(#filter0_f_2832_5080)">
<path d="M2493.72 1101.56C2400.19 1250.15 1981.94 1401.72 1688.22 1328.24C1394.49 1254.76 1109.72 1147.45 1202.72 938.625C1302.46 714.655 1771.21 518.575 2026.91 790.149C2282.6 1061.72 2587.25 952.973 2493.72 1101.56Z" fill="url(#paint0_linear_2832_5080)"/>
</g>
<g filter="url(#filter1_f_2832_5080)">
<path d="M398.852 1409.24C501.03 1203.49 1177.89 972.849 1730.38 1052.72C2282.88 1132.6 2833.97 1258.52 2758.57 1545.19C2677.69 1852.66 1930.33 2146.38 1360.36 1797.8C790.398 1449.21 296.673 1614.98 398.852 1409.24Z" fill="url(#paint1_linear_2832_5080)"/>
</g>
<g opacity="0.5" filter="url(#filter2_f_2832_5080)">
<path d="M1275.1 782.68C1544.45 890.647 1660.66 1258.48 1360.51 1476.46C1060.36 1694.44 692.83 1897.68 295.415 1776.63C-130.826 1646.81 -316.679 1228.68 385.108 1085.47C1086.9 942.265 1005.75 674.713 1275.1 782.68Z" fill="#3AC2FF"/>
</g>
<g opacity="0.8" filter="url(#filter3_f_2832_5080)">
<path d="M-1392.37 -1.25915C-1329.02 -188.329 -857.305 -407.548 -459.945 -344.94C-62.5853 -282.333 335.896 -178.22 295.339 81.3007C251.841 359.645 -267.206 636.879 -689.367 332.501C-1111.53 28.1231 -1455.72 185.811 -1392.37 -1.25915Z" fill="url(#paint2_linear_2832_5080)"/>
</g>
</g>
<defs>
<filter id="filter0_f_2832_5080" x="784.789" y="257.995" width="2126.22" height="1489.38" filterUnits="userSpaceOnUse" color-interpolation-filters="sRGB">
<feFlood flood-opacity="0" result="BackgroundImageFix"/>
<feBlend mode="normal" in="SourceGraphic" in2="BackgroundImageFix" result="shape"/>
<feGaussianBlur stdDeviation="200" result="effect1_foregroundBlur_2832_5080"/>
</filter>
<filter id="filter1_f_2832_5080" x="-14.636" y="636.513" width="3180.15" height="1719.21" filterUnits="userSpaceOnUse" color-interpolation-filters="sRGB">
<feFlood flood-opacity="0" result="BackgroundImageFix"/>
<feBlend mode="normal" in="SourceGraphic" in2="BackgroundImageFix" result="shape"/>
<feGaussianBlur stdDeviation="200" result="effect1_foregroundBlur_2832_5080"/>
</filter>
<filter id="filter2_f_2832_5080" x="-483.511" y="357.647" width="2421.4" height="1855.21" filterUnits="userSpaceOnUse" color-interpolation-filters="sRGB">
<feFlood flood-opacity="0" result="BackgroundImageFix"/>
<feBlend mode="normal" in="SourceGraphic" in2="BackgroundImageFix" result="shape"/>
<feGaussianBlur stdDeviation="200" result="effect1_foregroundBlur_2832_5080"/>
</filter>
<filter id="filter3_f_2832_5080" x="-1799.92" y="-755.847" width="2498.11" height="1621.04" filterUnits="userSpaceOnUse" color-interpolation-filters="sRGB">
<feFlood flood-opacity="0" result="BackgroundImageFix"/>
<feBlend mode="normal" in="SourceGraphic" in2="BackgroundImageFix" result="shape"/>
<feGaussianBlur stdDeviation="200" result="effect1_foregroundBlur_2832_5080"/>
</filter>
<linearGradient id="paint0_linear_2832_5080" x1="2032.94" y1="723.96" x2="1870.37" y2="1373.81" gradientUnits="userSpaceOnUse">
<stop stop-color="#4535FF"/>
<stop offset="1" stop-color="#FF579E"/>
</linearGradient>
<linearGradient id="paint1_linear_2832_5080" x1="1378.04" y1="1887.15" x2="1503.42" y2="1019.91" gradientUnits="userSpaceOnUse">
<stop stop-color="#4535FF"/>
<stop offset="1" stop-color="#3AC2FF"/>
</linearGradient>
<linearGradient id="paint2_linear_2832_5080" x1="-672.665" y1="412.697" x2="-551.031" y2="-359.292" gradientUnits="userSpaceOnUse">
<stop stop-color="#FF579E"/>
<stop offset="1" stop-color="#FFB525"/>
</linearGradient>
</defs>
</svg>
