<svg width="1759" height="1080" viewBox="0 0 1759 1080" fill="none" xmlns="http://www.w3.org/2000/svg">
<g opacity="0.3">
<g opacity="0.5">
<path fill-rule="evenodd" clip-rule="evenodd" d="M731.698 163.142C729.231 163.701 726.25 165.758 726.25 168.292V221.182C726.25 227.025 726.865 227.64 734.087 225.275L875.781 193.149C875.948 193.111 876.107 193.076 876.257 193.043C878.316 192.587 878.77 192.487 878.77 190.125L879.077 136.005C879.077 132.526 876.777 130.249 873.392 131.016L731.698 163.142ZM726.557 258.39C726.557 255.856 729.231 253.793 731.698 253.234L1025.91 186.528C1032.92 184.649 1032.84 186.038 1032.55 191.312L1032.55 191.32C1032.54 191.482 1032.53 191.648 1032.52 191.817V243.371C1032.52 247.722 1030.93 248.076 1028.64 248.584C1028.53 248.609 1028.42 248.634 1028.3 248.66L734.087 315.366C728.71 316.815 726.25 317.122 726.25 310.665L726.557 258.39ZM879.385 313.125C879.385 310.591 881.752 309.31 884.219 308.75L1025.91 276.624C1031.6 274.995 1032.52 275.302 1032.52 281.914V333.468C1032.52 336.002 1030.77 338.198 1028.3 338.757L886.608 370.883C879.111 373.111 879.231 370.052 879.354 366.905C879.369 366.504 879.385 366.101 879.385 365.707V313.125Z" fill="#CCCAEC"/>
</g>
<path opacity="0.2" d="M76.0001 371H1684" stroke="url(#paint0_linear_62_102)" stroke-width="1.46481"/>
<path opacity="0.2" d="M210.425 612.63L1549.57 612.63" stroke="url(#paint1_linear_62_102)" stroke-width="1.46576"/>
<path opacity="0.2" d="M210.425 638.46L1549.57 638.46" stroke="url(#paint2_linear_62_102)" stroke-width="1.46576"/>
<path opacity="0.2" d="M23.0001 131H1737" stroke="url(#paint3_linear_62_102)" stroke-width="1.46481"/>
<path opacity="0.2" d="M210.441 281.372L1549.56 -21.6397" stroke="url(#paint4_linear_62_102)" stroke-width="1.46481"/>
<path opacity="0.2" d="M210.441 312.741L1549.56 9.72956" stroke="url(#paint5_linear_62_102)" stroke-width="0.732406" stroke-dasharray="5.86 5.86"/>
<path opacity="0.2" d="M210.441 402.523L1549.56 99.5114" stroke="url(#paint6_linear_62_102)" stroke-width="0.732406" stroke-dasharray="5.86 5.86"/>
<path opacity="0.2" d="M210.441 492.304L1549.56 189.292" stroke="url(#paint7_linear_62_102)" stroke-width="0.732406" stroke-dasharray="5.86 5.86"/>
<path opacity="0.2" d="M210.441 344.111L1549.56 41.0993" stroke="url(#paint8_linear_62_102)" stroke-width="1.46481"/>
<path opacity="0.2" d="M2.23944 418.668L1757.86 21.4126" stroke="url(#paint9_linear_62_102)" stroke-width="1.46481"/>
<path opacity="0.2" d="M1.00006 479.255L1756.62 82" stroke="url(#paint10_linear_62_102)" stroke-width="1.46481"/>
<path opacity="0.2" d="M210.44 460.935L1549.56 157.923" stroke="url(#paint11_linear_62_102)" stroke-width="1.46481"/>
<path opacity="0.2" d="M210.44 523.673L1549.56 220.662" stroke="url(#paint12_linear_62_102)" stroke-width="1.46481"/>
<path opacity="0.2" d="M726 -225L726 1094" stroke="url(#paint13_linear_62_102)" stroke-width="1.46481"/>
<path opacity="0.2" d="M879 -225L879 1094" stroke="url(#paint14_linear_62_102)" stroke-width="1.46481"/>
<path opacity="0.2" d="M1032.52 -225L1032.52 882" stroke="url(#paint15_linear_62_102)" stroke-width="1.46481"/>
<path opacity="0.2" d="M956 -225L956 1094" stroke="url(#paint16_linear_62_102)" stroke-width="0.732406" stroke-dasharray="5.86 5.86"/>
<path opacity="0.2" d="M803 -225L803 1094" stroke="url(#paint17_linear_62_102)" stroke-width="0.732406" stroke-dasharray="5.86 5.86"/>
<path opacity="0.2" d="M752 -225L752 1094" stroke="url(#paint18_linear_62_102)" stroke-width="0.732406" stroke-dasharray="5.86 5.86"/>
<path opacity="0.2" d="M905 -225L905 1094" stroke="url(#paint19_linear_62_102)" stroke-width="0.732406" stroke-dasharray="5.86 5.86"/>
<path opacity="0.2" d="M777 -225L777 1094" stroke="url(#paint20_linear_62_102)" stroke-width="0.732406"/>
<path opacity="0.2" d="M931 -225L931 1094" stroke="url(#paint21_linear_62_102)" stroke-width="1.46481"/>
<path opacity="0.2" d="M828 -225L828 1094" stroke="url(#paint22_linear_62_102)" stroke-width="1.46481"/>
<path opacity="0.2" d="M981 -225L981 1094" stroke="url(#paint23_linear_62_102)" stroke-width="0.732406"/>
<path opacity="0.2" d="M854 -225L854 1094" stroke="url(#paint24_linear_62_102)" stroke-width="0.732406" stroke-dasharray="5.86 5.86"/>
<path opacity="0.2" d="M1007 -225L1007 1094" stroke="url(#paint25_linear_62_102)" stroke-width="0.732406" stroke-dasharray="5.86 5.86"/>
<circle cx="726.25" cy="164.295" r="2.46" fill="#3A3780"/>
<circle cx="878.77" cy="130.47" r="2.46" fill="#3A3780"/>
<circle cx="878.77" cy="192.585" r="2.46" fill="#3A3780"/>
<circle cx="1032.52" cy="274.995" r="2.46" fill="#3A3780"/>
<circle cx="1032.52" cy="185.205" r="2.46" fill="#3A3780"/>
<circle cx="1032.52" cy="247.935" r="2.46" fill="#3A3780"/>
<circle cx="1032.52" cy="337.725" r="2.46" fill="#3A3780"/>
<circle cx="726.25" cy="227.025" r="2.46" fill="#3A3780"/>
<circle cx="726.25" cy="316.815" r="2.46" fill="#3A3780"/>
<circle cx="726.25" cy="254.085" r="2.46" fill="#3A3780"/>
<circle cx="878.77" cy="310.05" r="2.46" fill="#3A3780"/>
<circle cx="878.77" cy="371.55" r="2.46" fill="#3A3780"/>
</g>
<defs>
<linearGradient id="paint0_linear_62_102" x1="1534.5" y1="371" x2="241.905" y2="371" gradientUnits="userSpaceOnUse">
<stop stop-color="#464299" stop-opacity="0"/>
<stop offset="0.3" stop-color="#464299"/>
<stop offset="0.75" stop-color="#464299"/>
<stop offset="1" stop-color="#464299" stop-opacity="0"/>
</linearGradient>
<linearGradient id="paint1_linear_62_102" x1="1425.07" y1="612.63" x2="348.592" y2="612.63" gradientUnits="userSpaceOnUse">
<stop offset="0.22" stop-color="#464299" stop-opacity="0"/>
<stop offset="0.455" stop-color="#464299"/>
<stop offset="0.595" stop-color="#464299"/>
<stop offset="0.795" stop-color="#464299" stop-opacity="0"/>
</linearGradient>
<linearGradient id="paint2_linear_62_102" x1="1425.07" y1="638.46" x2="348.592" y2="638.46" gradientUnits="userSpaceOnUse">
<stop offset="0.22" stop-color="#464299" stop-opacity="0"/>
<stop offset="0.455" stop-color="#464299"/>
<stop offset="0.595" stop-color="#464299"/>
<stop offset="0.795" stop-color="#464299" stop-opacity="0"/>
</linearGradient>
<linearGradient id="paint3_linear_62_102" x1="1577.65" y1="131" x2="199.841" y2="131" gradientUnits="userSpaceOnUse">
<stop stop-color="#464299" stop-opacity="0"/>
<stop offset="0.132653" stop-color="#464299"/>
<stop offset="0.877551" stop-color="#464299"/>
<stop offset="1" stop-color="#464299" stop-opacity="0"/>
</linearGradient>
<linearGradient id="paint4_linear_62_102" x1="1425.06" y1="6.53151" x2="348.604" y2="250.109" gradientUnits="userSpaceOnUse">
<stop stop-color="#464299" stop-opacity="0"/>
<stop offset="0.132653" stop-color="#464299"/>
<stop offset="0.877551" stop-color="#464299"/>
<stop offset="1" stop-color="#464299" stop-opacity="0"/>
</linearGradient>
<linearGradient id="paint5_linear_62_102" x1="1412.91" y1="40.6491" x2="353.159" y2="280.447" gradientUnits="userSpaceOnUse">
<stop stop-color="#464299" stop-opacity="0"/>
<stop offset="0.132653" stop-color="#464299"/>
<stop offset="0.877551" stop-color="#464299"/>
<stop offset="1" stop-color="#464299" stop-opacity="0"/>
</linearGradient>
<linearGradient id="paint6_linear_62_102" x1="1412.91" y1="130.431" x2="353.159" y2="370.229" gradientUnits="userSpaceOnUse">
<stop stop-color="#464299" stop-opacity="0"/>
<stop offset="0.132653" stop-color="#464299"/>
<stop offset="0.877551" stop-color="#464299"/>
<stop offset="1" stop-color="#464299" stop-opacity="0"/>
</linearGradient>
<linearGradient id="paint7_linear_62_102" x1="1412.91" y1="220.212" x2="353.159" y2="460.01" gradientUnits="userSpaceOnUse">
<stop stop-color="#464299" stop-opacity="0"/>
<stop offset="0.132653" stop-color="#464299"/>
<stop offset="0.877551" stop-color="#464299"/>
<stop offset="1" stop-color="#464299" stop-opacity="0"/>
</linearGradient>
<linearGradient id="paint8_linear_62_102" x1="1425.06" y1="69.2704" x2="348.604" y2="312.848" gradientUnits="userSpaceOnUse">
<stop stop-color="#464299" stop-opacity="0"/>
<stop offset="0.132653" stop-color="#464299"/>
<stop offset="0.877551" stop-color="#464299"/>
<stop offset="1" stop-color="#464299" stop-opacity="0"/>
</linearGradient>
<linearGradient id="paint9_linear_62_102" x1="1594.64" y1="58.3457" x2="183.374" y2="377.681" gradientUnits="userSpaceOnUse">
<stop stop-color="#464299" stop-opacity="0"/>
<stop offset="0.132653" stop-color="#464299"/>
<stop offset="0.877551" stop-color="#464299"/>
<stop offset="1" stop-color="#464299" stop-opacity="0"/>
</linearGradient>
<linearGradient id="paint10_linear_62_102" x1="1593.4" y1="118.933" x2="182.135" y2="438.269" gradientUnits="userSpaceOnUse">
<stop stop-color="#464299" stop-opacity="0"/>
<stop offset="0.132653" stop-color="#464299"/>
<stop offset="0.877551" stop-color="#464299"/>
<stop offset="1" stop-color="#464299" stop-opacity="0"/>
</linearGradient>
<linearGradient id="paint11_linear_62_102" x1="1425.06" y1="186.094" x2="348.603" y2="429.672" gradientUnits="userSpaceOnUse">
<stop stop-color="#464299" stop-opacity="0"/>
<stop offset="0.132653" stop-color="#464299"/>
<stop offset="0.877551" stop-color="#464299"/>
<stop offset="1" stop-color="#464299" stop-opacity="0"/>
</linearGradient>
<linearGradient id="paint12_linear_62_102" x1="1425.06" y1="248.833" x2="348.603" y2="492.41" gradientUnits="userSpaceOnUse">
<stop stop-color="#464299" stop-opacity="0"/>
<stop offset="0.361251" stop-color="#464299"/>
<stop offset="0.651419" stop-color="#464299"/>
<stop offset="1" stop-color="#464299" stop-opacity="0"/>
</linearGradient>
<linearGradient id="paint13_linear_62_102" x1="726" y1="971.372" x2="726" y2="-88.9127" gradientUnits="userSpaceOnUse">
<stop offset="0.105" stop-color="#464299"/>
<stop offset="0.2" stop-color="#464299" stop-opacity="0"/>
<stop offset="0.3" stop-color="#464299" stop-opacity="0"/>
<stop offset="0.4" stop-color="#464299"/>
<stop offset="0.877551" stop-color="#464299"/>
<stop offset="1" stop-color="#464299" stop-opacity="0"/>
</linearGradient>
<linearGradient id="paint14_linear_62_102" x1="879" y1="971.372" x2="879" y2="-88.9127" gradientUnits="userSpaceOnUse">
<stop offset="0.0585184" stop-color="#464299"/>
<stop offset="0.145123" stop-color="#464299" stop-opacity="0"/>
<stop offset="0.35" stop-color="#464299" stop-opacity="0"/>
<stop offset="0.45" stop-color="#464299"/>
<stop offset="0.877551" stop-color="#464299"/>
<stop offset="1" stop-color="#464299" stop-opacity="0"/>
</linearGradient>
<linearGradient id="paint15_linear_62_102" x1="1032.52" y1="779.082" x2="1032.52" y2="-110.786" gradientUnits="userSpaceOnUse">
<stop offset="0.105" stop-color="#464299"/>
<stop offset="0.2" stop-color="#464299" stop-opacity="0"/>
<stop offset="0.3" stop-color="#464299" stop-opacity="0"/>
<stop offset="0.4" stop-color="#464299"/>
<stop offset="0.877551" stop-color="#464299"/>
<stop offset="1" stop-color="#464299" stop-opacity="0"/>
</linearGradient>
<linearGradient id="paint16_linear_62_102" x1="956" y1="959.408" x2="956" y2="-84.4263" gradientUnits="userSpaceOnUse">
<stop stop-color="#464299" stop-opacity="0"/>
<stop offset="0.132653" stop-color="#464299"/>
<stop offset="0.877551" stop-color="#464299"/>
<stop offset="1" stop-color="#464299" stop-opacity="0"/>
</linearGradient>
<linearGradient id="paint17_linear_62_102" x1="803" y1="959.408" x2="803" y2="-84.4263" gradientUnits="userSpaceOnUse">
<stop stop-color="#464299" stop-opacity="0"/>
<stop offset="0.132653" stop-color="#464299"/>
<stop offset="0.877551" stop-color="#464299"/>
<stop offset="1" stop-color="#464299" stop-opacity="0"/>
</linearGradient>
<linearGradient id="paint18_linear_62_102" x1="752" y1="959.408" x2="752" y2="-84.4263" gradientUnits="userSpaceOnUse">
<stop stop-color="#464299" stop-opacity="0"/>
<stop offset="0.132653" stop-color="#464299"/>
<stop offset="0.877551" stop-color="#464299"/>
<stop offset="1" stop-color="#464299" stop-opacity="0"/>
</linearGradient>
<linearGradient id="paint19_linear_62_102" x1="905" y1="959.408" x2="905" y2="-84.4263" gradientUnits="userSpaceOnUse">
<stop stop-color="#464299" stop-opacity="0"/>
<stop offset="0.132653" stop-color="#464299"/>
<stop offset="0.877551" stop-color="#464299"/>
<stop offset="1" stop-color="#464299" stop-opacity="0"/>
</linearGradient>
<linearGradient id="paint20_linear_62_102" x1="777" y1="971.372" x2="777" y2="-80.6875" gradientUnits="userSpaceOnUse">
<stop offset="0.05" stop-color="#464299" stop-opacity="0"/>
<stop offset="0.4" stop-color="#464299"/>
<stop offset="0.877551" stop-color="#464299"/>
<stop offset="1" stop-color="#464299" stop-opacity="0"/>
</linearGradient>
<linearGradient id="paint21_linear_62_102" x1="931" y1="971.372" x2="931" y2="-88.9127" gradientUnits="userSpaceOnUse">
<stop offset="0.105" stop-color="#464299"/>
<stop offset="0.245561" stop-color="#464299" stop-opacity="0"/>
<stop offset="0.3" stop-color="#464299" stop-opacity="0"/>
<stop offset="0.4" stop-color="#464299"/>
<stop offset="0.877551" stop-color="#464299"/>
<stop offset="1" stop-color="#464299" stop-opacity="0"/>
</linearGradient>
<linearGradient id="paint22_linear_62_102" x1="828" y1="971.372" x2="828" y2="-88.9127" gradientUnits="userSpaceOnUse">
<stop offset="0.105" stop-color="#464299"/>
<stop offset="0.245561" stop-color="#464299" stop-opacity="0"/>
<stop offset="0.3" stop-color="#464299" stop-opacity="0"/>
<stop offset="0.4" stop-color="#464299"/>
<stop offset="0.877551" stop-color="#464299"/>
<stop offset="1" stop-color="#464299" stop-opacity="0"/>
</linearGradient>
<linearGradient id="paint23_linear_62_102" x1="981" y1="971.372" x2="981" y2="-80.6875" gradientUnits="userSpaceOnUse">
<stop stop-color="#464299" stop-opacity="0"/>
<stop offset="0.4" stop-color="#464299"/>
<stop offset="0.877551" stop-color="#464299"/>
<stop offset="1" stop-color="#464299" stop-opacity="0"/>
</linearGradient>
<linearGradient id="paint24_linear_62_102" x1="854" y1="959.408" x2="854" y2="-84.4263" gradientUnits="userSpaceOnUse">
<stop stop-color="#464299" stop-opacity="0"/>
<stop offset="0.132653" stop-color="#464299"/>
<stop offset="0.877551" stop-color="#464299"/>
<stop offset="1" stop-color="#464299" stop-opacity="0"/>
</linearGradient>
<linearGradient id="paint25_linear_62_102" x1="1007" y1="959.408" x2="1007" y2="-84.4263" gradientUnits="userSpaceOnUse">
<stop stop-color="#464299" stop-opacity="0"/>
<stop offset="0.132653" stop-color="#464299"/>
<stop offset="0.877551" stop-color="#464299"/>
<stop offset="1" stop-color="#464299" stop-opacity="0"/>
</linearGradient>
</defs>
</svg>
