<svg width="105" height="10" viewBox="0 0 105 10" fill="none" xmlns="http://www.w3.org/2000/svg">
<path d="M4.37658 0.398141C4.62446 -0.132713 5.37554 -0.132714 5.62342 0.39814L6.61739 2.52679C6.71488 2.73559 6.90941 2.88186 7.13618 2.9169L9.4152 3.26903C9.96908 3.35461 10.1948 4.03393 9.80334 4.43701L8.11245 6.17797C7.95969 6.33526 7.8903 6.55614 7.9255 6.7731L8.31839 9.19462C8.41094 9.76506 7.80854 10.1916 7.30541 9.91194L5.33327 8.81559C5.12589 8.7003 4.87411 8.7003 4.66673 8.81559L2.69459 9.91194C2.19146 10.1916 1.58906 9.76506 1.68161 9.19462L2.0745 6.7731C2.1097 6.55614 2.04031 6.33526 1.88755 6.17797L0.196661 4.43701C-0.194825 4.03393 0.0309229 3.35461 0.584798 3.26903L2.86382 2.9169C3.09059 2.88186 3.28512 2.73559 3.38261 2.52679L4.37658 0.398141Z" fill="#FFC63C"/>
<path d="M28.1266 0.398141C28.3745 -0.132713 29.1255 -0.132714 29.3734 0.39814L30.3674 2.52679C30.4649 2.73559 30.6594 2.88186 30.8862 2.9169L33.1652 3.26903C33.7191 3.35461 33.9448 4.03393 33.5533 4.43701L31.8625 6.17797C31.7097 6.33526 31.6403 6.55614 31.6755 6.7731L32.0684 9.19462C32.1609 9.76506 31.5585 10.1916 31.0554 9.91194L29.0833 8.81559C28.8759 8.7003 28.6241 8.7003 28.4167 8.81559L26.4446 9.91194C25.9415 10.1916 25.3391 9.76506 25.4316 9.19462L25.8245 6.7731C25.8597 6.55614 25.7903 6.33526 25.6375 6.17797L23.9467 4.43701C23.5552 4.03393 23.7809 3.35461 24.3348 3.26903L26.6138 2.9169C26.8406 2.88186 27.0351 2.73559 27.1326 2.52679L28.1266 0.398141Z" fill="#FFC63C"/>
<path d="M51.8766 0.398141C52.1245 -0.132713 52.8755 -0.132714 53.1234 0.39814L54.1174 2.52679C54.2149 2.73559 54.4094 2.88186 54.6362 2.9169L56.9152 3.26903C57.4691 3.35461 57.6948 4.03393 57.3033 4.43701L55.6125 6.17797C55.4597 6.33526 55.3903 6.55614 55.4255 6.7731L55.8184 9.19462C55.9109 9.76506 55.3085 10.1916 54.8054 9.91194L52.8333 8.81559C52.6259 8.7003 52.3741 8.7003 52.1667 8.81559L50.1946 9.91194C49.6915 10.1916 49.0891 9.76506 49.1816 9.19462L49.5745 6.7731C49.6097 6.55614 49.5403 6.33526 49.3875 6.17797L47.6967 4.43701C47.3052 4.03393 47.5309 3.35461 48.0848 3.26903L50.3638 2.9169C50.5906 2.88186 50.7851 2.73559 50.8826 2.52679L51.8766 0.398141Z" fill="#FFC63C"/>
<path d="M75.6266 0.398141C75.8745 -0.132713 76.6255 -0.132714 76.8734 0.39814L77.8674 2.52679C77.9649 2.73559 78.1594 2.88186 78.3862 2.9169L80.6652 3.26903C81.2191 3.35461 81.4448 4.03393 81.0533 4.43701L79.3625 6.17797C79.2097 6.33526 79.1403 6.55614 79.1755 6.7731L79.5684 9.19462C79.6609 9.76506 79.0585 10.1916 78.5554 9.91194L76.5833 8.81559C76.3759 8.7003 76.1241 8.7003 75.9167 8.81559L73.9446 9.91194C73.4415 10.1916 72.8391 9.76506 72.9316 9.19462L73.3245 6.7731C73.3597 6.55614 73.2903 6.33526 73.1375 6.17797L71.4467 4.43701C71.0552 4.03393 71.2809 3.35461 71.8348 3.26903L74.1138 2.9169C74.3406 2.88186 74.5351 2.73559 74.6326 2.52679L75.6266 0.398141Z" fill="#FFC63C"/>
<path d="M99.3766 0.398141C99.6245 -0.132713 100.376 -0.132714 100.623 0.39814L101.617 2.52679C101.715 2.73559 101.909 2.88186 102.136 2.9169L104.415 3.26903C104.969 3.35461 105.195 4.03393 104.803 4.43701L103.112 6.17797C102.96 6.33526 102.89 6.55614 102.926 6.7731L103.318 9.19462C103.411 9.76506 102.809 10.1916 102.305 9.91194L100.333 8.81559C100.126 8.7003 99.8741 8.7003 99.6667 8.81559L97.6946 9.91194C97.1915 10.1916 96.5891 9.76506 96.6816 9.19462L97.0745 6.7731C97.1097 6.55614 97.0403 6.33526 96.8875 6.17797L95.1967 4.43701C94.8052 4.03393 95.0309 3.35461 95.5848 3.26903L97.8638 2.9169C98.0906 2.88186 98.2851 2.73559 98.3826 2.52679L99.3766 0.398141Z" fill="#FFC63C"/>
</svg>
