<svg width="18" height="18" viewBox="0 0 18 18" fill="none" xmlns="http://www.w3.org/2000/svg">
<path d="M3.67163 14.6174L4.30884 11.9258H4.66479L4.74609 12.374L4.06714 15.125H3.68481L3.67163 14.6174ZM3.34424 11.9258L3.87158 14.6174L3.82764 15.125H3.40137L2.69165 11.9258H3.34424ZM5.3064 14.6064L5.82715 11.9258H6.47974L5.77222 15.125H5.34595L5.3064 14.6064ZM4.86475 11.9258L5.50635 14.6284L5.48877 15.125H5.10645L4.4231 12.3718L4.51099 11.9258H4.86475Z" fill="#6C7280"/>
<path d="M7.82227 15.1689C7.6377 15.1689 7.47217 15.1396 7.32568 15.0811C7.1792 15.021 7.05469 14.9382 6.95215 14.8328C6.85107 14.7273 6.77344 14.605 6.71924 14.4658C6.66504 14.3252 6.63794 14.1758 6.63794 14.0176V13.9297C6.63794 13.7495 6.66357 13.5847 6.71484 13.4353C6.76611 13.2859 6.83936 13.1562 6.93457 13.0464C7.03125 12.9365 7.14844 12.8523 7.28613 12.7937C7.42383 12.7336 7.5791 12.7036 7.75195 12.7036C7.92041 12.7036 8.06982 12.7314 8.2002 12.7871C8.33057 12.8428 8.4397 12.9219 8.52759 13.0244C8.61694 13.127 8.68433 13.25 8.72974 13.3936C8.77515 13.5356 8.79785 13.6938 8.79785 13.8682V14.1318H6.9082V13.71H8.17603V13.6616C8.17603 13.5737 8.15991 13.4954 8.12769 13.4265C8.09692 13.3562 8.05005 13.3005 7.98706 13.2595C7.92407 13.2185 7.84351 13.198 7.74536 13.198C7.66187 13.198 7.59009 13.2163 7.53003 13.2529C7.46997 13.2896 7.4209 13.3408 7.38281 13.4067C7.34619 13.4727 7.31836 13.5503 7.29932 13.6396C7.28174 13.7275 7.27295 13.8242 7.27295 13.9297V14.0176C7.27295 14.1128 7.28613 14.2007 7.3125 14.2812C7.34033 14.3618 7.37915 14.4314 7.42896 14.49C7.48022 14.5486 7.54175 14.594 7.61353 14.6262C7.68677 14.6584 7.76953 14.6746 7.86182 14.6746C7.97607 14.6746 8.08228 14.6526 8.18042 14.6086C8.28003 14.5632 8.36572 14.4951 8.4375 14.4043L8.74512 14.7383C8.69531 14.8101 8.6272 14.8789 8.54077 14.9448C8.45581 15.0107 8.35327 15.0649 8.23315 15.1074C8.11304 15.1484 7.97607 15.1689 7.82227 15.1689Z" fill="#6C7280"/>
<path d="M9.1582 11.75H9.79102V14.5801L9.72729 15.125H9.1582V11.75ZM11.2961 13.9121V13.9583C11.2961 14.1355 11.2771 14.2981 11.239 14.446C11.2024 14.594 11.1453 14.7222 11.0676 14.8306C10.99 14.9375 10.8933 15.021 10.7776 15.0811C10.6633 15.1396 10.5286 15.1689 10.3733 15.1689C10.2283 15.1689 10.1023 15.1396 9.99536 15.0811C9.88989 15.0225 9.80127 14.9397 9.72949 14.8328C9.65771 14.7258 9.59985 14.6006 9.55591 14.457C9.51196 14.3135 9.479 14.1567 9.45703 13.9868V13.8857C9.479 13.7158 9.51196 13.5591 9.55591 13.4155C9.59985 13.272 9.65771 13.1467 9.72949 13.0398C9.80127 12.9329 9.88989 12.8501 9.99536 12.7915C10.1008 12.7329 10.2253 12.7036 10.3689 12.7036C10.5256 12.7036 10.6619 12.7336 10.7776 12.7937C10.8948 12.8523 10.9915 12.9358 11.0676 13.0442C11.1453 13.1511 11.2024 13.2786 11.239 13.4265C11.2771 13.573 11.2961 13.7349 11.2961 13.9121ZM10.6633 13.9583V13.9121C10.6633 13.8154 10.656 13.7246 10.6414 13.6396C10.6282 13.5532 10.6047 13.4778 10.571 13.4133C10.5374 13.3474 10.4912 13.2954 10.4326 13.2573C10.3755 13.2192 10.3015 13.2002 10.2107 13.2002C10.1243 13.2002 10.051 13.2148 9.99097 13.2441C9.93091 13.2734 9.8811 13.3145 9.84155 13.3672C9.80347 13.4199 9.7749 13.4829 9.75586 13.5562C9.73682 13.6279 9.7251 13.707 9.7207 13.7935V14.0813C9.7251 14.197 9.74414 14.2996 9.77783 14.3889C9.81299 14.4768 9.86572 14.5464 9.93604 14.5977C10.0078 14.6475 10.1008 14.6724 10.2151 14.6724C10.3044 14.6724 10.3784 14.6548 10.437 14.6196C10.4956 14.5845 10.541 14.5347 10.5732 14.4702C10.6069 14.4058 10.6304 14.3303 10.6436 14.2439C10.6567 14.156 10.6633 14.0608 10.6633 13.9583Z" fill="#6C7280"/>
<path d="M12.03 11.9258H12.5881L13.4099 14.2747L14.2317 11.9258H14.7898L13.634 15.125H13.1858L12.03 11.9258ZM11.729 11.9258H12.2849L12.386 14.2153V15.125H11.729V11.9258ZM14.5349 11.9258H15.093V15.125H14.4338V14.2153L14.5349 11.9258Z" fill="#6C7280"/>
<path fill-rule="evenodd" clip-rule="evenodd" d="M1.5 2C1.5 1.17157 2.17157 0.5 3 0.5H15C15.8284 0.5 16.5 1.17157 16.5 2V16C16.5 16.8284 15.8284 17.5 15 17.5H3C2.17157 17.5 1.5 16.8284 1.5 16V2ZM2.5 11.5C2.5 10.9477 2.94772 10.5 3.5 10.5H14.5C15.0523 10.5 15.5 10.9477 15.5 11.5V15.5C15.5 16.0523 15.0523 16.5 14.5 16.5H3.5C2.94772 16.5 2.5 16.0523 2.5 15.5V11.5ZM12.25 6.18301C12.5833 5.99056 12.5833 5.50944 12.25 5.31699L7.375 2.5024C7.04167 2.30995 6.625 2.55052 6.625 2.93542L6.625 8.56458C6.625 8.94948 7.04167 9.19005 7.375 8.99759L12.25 6.18301Z" fill="#6C7280"/>
</svg>
