<svg width="18" height="18" viewBox="0 0 18 18" fill="none" xmlns="http://www.w3.org/2000/svg">
<path d="M4.76367 12H5.28662L6.16113 14.4082L7.03345 12H7.55859L6.36987 15.1992H5.9502L4.76367 12ZM4.5 12H5.01196L5.10425 14.2126V15.1992H4.5V12ZM7.30811 12H7.82227V15.1992H7.21802V14.2126L7.30811 12Z" fill="#6C7280"/>
<path d="M9.66797 14.0325H8.84399V13.5579H9.66797C9.80273 13.5579 9.91187 13.5359 9.99536 13.4919C10.0803 13.4465 10.1426 13.385 10.1821 13.3074C10.2217 13.2283 10.2415 13.1382 10.2415 13.0371C10.2415 12.939 10.2217 12.8474 10.1821 12.7625C10.1426 12.6775 10.0803 12.6086 9.99536 12.5559C9.91187 12.5032 9.80273 12.4768 9.66797 12.4768H9.04175V15.1992H8.4375V12H9.66797C9.91699 12 10.1294 12.0447 10.3052 12.134C10.4824 12.2219 10.6172 12.3442 10.7095 12.501C10.8032 12.6562 10.8501 12.8335 10.8501 13.0327C10.8501 13.2393 10.8032 13.4172 10.7095 13.5667C10.6172 13.7161 10.4824 13.8311 10.3052 13.9116C10.1294 13.9922 9.91699 14.0325 9.66797 14.0325Z" fill="#6C7280"/>
<path d="M13.4714 14.0325V14.4895H11.1665L11.1423 14.1379L12.498 12H12.9617L12.4607 12.8503L11.7334 14.0325H13.4714ZM13.0913 12V15.1992H12.509V12H13.0913Z" fill="#6C7280"/>
<path fill-rule="evenodd" clip-rule="evenodd" d="M1.5 2C1.5 1.17157 2.17157 0.5 3 0.5H15C15.8284 0.5 16.5 1.17157 16.5 2V16C16.5 16.8284 15.8284 17.5 15 17.5H3C2.17157 17.5 1.5 16.8284 1.5 16V2ZM2.5 11.5C2.5 10.9477 2.94772 10.5 3.5 10.5H14.5C15.0523 10.5 15.5 10.9477 15.5 11.5V15.5C15.5 16.0523 15.0523 16.5 14.5 16.5H3.5C2.94772 16.5 2.5 16.0523 2.5 15.5V11.5ZM12.25 6.18301C12.5833 5.99056 12.5833 5.50944 12.25 5.31699L7.375 2.5024C7.04167 2.30995 6.625 2.55052 6.625 2.93542L6.625 8.56458C6.625 8.94948 7.04167 9.19005 7.375 8.99759L12.25 6.18301Z" fill="#6C7280"/>
</svg>
