<svg width="38" height="38" viewBox="0 0 38 38" fill="none" xmlns="http://www.w3.org/2000/svg">
<rect x="0.296875" y="0.296875" width="37.4062" height="37.4062" rx="6.82812" stroke="#E2E2E2" stroke-width="0.59375"/>
<mask id="mask0_35420_8162" style="mask-type:luminance" maskUnits="userSpaceOnUse" x="8" y="9" width="22" height="20">
<path d="M8.11462 9.23242H29.8857V28.1374H8.11462V9.23242Z" fill="white"/>
</mask>
<g mask="url(#mask0_35420_8162)">
<path d="M8.11462 9.23242V26.653C8.11494 27.0466 8.27143 27.424 8.54973 27.7023C8.82804 27.9806 9.20541 28.1371 9.599 28.1374H28.4001C28.7938 28.1373 29.1713 27.9808 29.4497 27.7025C29.7282 27.4242 29.8847 27.0467 29.8851 26.653L29.8839 9.23242H8.11462ZM16.5257 11.3123H21.4722C21.7346 11.3123 21.9863 11.4166 22.1719 11.6021C22.3575 11.7877 22.4617 12.0394 22.4617 12.3018C22.4617 12.5642 22.3575 12.8159 22.1719 13.0015C21.9863 13.187 21.7346 13.2913 21.4722 13.2913H16.5263C16.2639 13.2913 16.0122 13.187 15.8266 13.0015C15.641 12.8159 15.5368 12.5642 15.5368 12.3018C15.5368 12.0394 15.641 11.7877 15.8266 11.6021C16.0122 11.4166 16.2633 11.3123 16.5257 11.3123Z" fill="#F1F3F4"/>
<path d="M8.11462 9.23242V26.653C8.11494 27.0466 8.27143 27.424 8.54973 27.7023C8.82804 27.9806 9.20541 28.1371 9.599 28.1374H28.4001C28.7938 28.1373 29.1713 27.9808 29.4497 27.7025C29.7282 27.4242 29.8847 27.0467 29.8851 26.653L29.8839 9.23242H8.11462ZM16.5257 11.3123H21.4722C21.7346 11.3123 21.9863 11.4166 22.1719 11.6021C22.3575 11.7877 22.4617 12.0394 22.4617 12.3018C22.4617 12.5642 22.3575 12.8159 22.1719 13.0015C21.9863 13.187 21.7346 13.2913 21.4722 13.2913H16.5263C16.2639 13.2913 16.0122 13.187 15.8266 13.0015C15.641 12.8159 15.5368 12.5642 15.5368 12.3018C15.5368 12.0394 15.641 11.7877 15.8266 11.6021C16.0122 11.4166 16.2633 11.3123 16.5257 11.3123Z" fill="#F1F3F4"/>
<path d="M8.11462 9.23242V18.7354H29.8833V9.23242H8.11462ZM16.5257 11.3123H21.4722C21.7346 11.3123 21.9863 11.4166 22.1719 11.6021C22.3575 11.7877 22.4617 12.0394 22.4617 12.3018C22.4617 12.5642 22.3575 12.8159 22.1719 13.0015C21.9863 13.187 21.7346 13.2913 21.4722 13.2913H16.5263C16.2639 13.2913 16.0122 13.187 15.8266 13.0015C15.641 12.8159 15.5368 12.5642 15.5368 12.3018C15.5368 12.0394 15.641 11.7877 15.8266 11.6021C16.0122 11.4166 16.2633 11.3123 16.5257 11.3123Z" fill="#E8EAED"/>
<path d="M18.9996 17.2522C15.5202 17.2522 12.4843 19.1403 10.8593 21.9505L12.1548 25.9049L14.1558 28.1374H15.4293L19.0002 21.9529L27.1405 21.9511C25.5142 19.1409 22.4778 17.2522 18.9996 17.2522Z" fill="url(#paint0_linear_35420_8162)"/>
<path d="M10.8583 21.9512C9.78131 23.8222 9.37831 26.0059 9.71654 28.138H14.4297L10.8583 21.9512Z" fill="url(#paint1_linear_35420_8162)"/>
<path d="M18.999 21.9551L22.5698 28.1408H28.2817C28.6197 26.0089 28.2165 23.8256 27.1393 21.9551H18.999Z" fill="url(#paint2_linear_35420_8162)"/>
<path d="M18.9994 21.9551C18.2548 21.9553 17.5209 22.1324 16.8582 22.4718C16.1955 22.8112 15.6229 23.3032 15.1876 23.9072C14.7522 24.5112 14.4667 25.2101 14.3543 25.9461C14.242 26.6822 14.3061 27.4344 14.5415 28.1408H23.4572C23.6926 27.4344 23.7567 26.6822 23.6444 25.9461C23.5321 25.2101 23.2465 24.5112 22.8111 23.9072C22.3758 23.3032 21.8032 22.8112 21.1405 22.4718C20.4778 22.1324 19.7439 21.9553 18.9994 21.9551Z" fill="#F1F3F4"/>
<path d="M18.9992 22.8326C18.4976 22.8325 18.0009 22.9312 17.5375 23.1231C17.0741 23.315 16.653 23.5964 16.2984 23.9511C15.9438 24.3058 15.6626 24.727 15.4708 25.1904C15.279 25.6539 15.1805 26.1506 15.1808 26.6522C15.1832 27.1628 15.2877 27.6675 15.4883 28.1366H22.51C22.7107 27.6675 22.8152 27.1628 22.8176 26.6522C22.8176 25.6393 22.4154 24.6679 21.6993 23.9516C20.9833 23.2352 20.0121 22.8331 18.9992 22.8326Z" fill="#1A73E8"/>
<path opacity="0.1" d="M29.8832 18.736H8.11511V18.8589H29.8832V18.736ZM29.8832 18.6113H8.11511V18.7342H29.8832V18.6113Z" fill="#BDC1C6"/>
</g>
<defs>
<linearGradient id="paint0_linear_35420_8162" x1="10.8587" y1="23.1274" x2="27.1399" y2="23.1274" gradientUnits="userSpaceOnUse">
<stop stop-color="#D93025"/>
<stop offset="1" stop-color="#EA4335"/>
</linearGradient>
<linearGradient id="paint1_linear_35420_8162" x1="20.0175" y1="35.4667" x2="11.8748" y2="21.364" gradientUnits="userSpaceOnUse">
<stop stop-color="#1E8E3E"/>
<stop offset="1" stop-color="#34A853"/>
</linearGradient>
<linearGradient id="paint2_linear_35420_8162" x1="25.7933" y1="21.9361" x2="17.6512" y2="36.0382" gradientUnits="userSpaceOnUse">
<stop stop-color="#FBBC04"/>
<stop offset="1" stop-color="#FCC934"/>
</linearGradient>
</defs>
</svg>
