<svg width="100" height="28" viewBox="0 0 100 28" fill="none" xmlns="http://www.w3.org/2000/svg">
<path d="M10.4739 0C12.8594 0 14.829 1.84095 15.1259 4.22356L15.1259 4.66667H10.7497C10.6447 4.66667 10.5429 4.70429 10.4619 4.7731L8.6335 6.32529C8.49719 6.25918 8.34494 6.22222 8.18432 6.22222C7.60092 6.22222 7.12799 6.70973 7.12799 7.31111C7.12799 7.91249 7.60092 8.4 8.18432 8.4C8.76771 8.4 9.24064 7.91249 9.24064 7.31111C9.24064 7.21959 9.22969 7.13071 9.20906 7.04578L10.9119 5.6H15.1259V13.5333L6.57365 13.5334C6.40412 13.1655 6.04035 12.9111 5.61896 12.9111C5.03556 12.9111 4.56263 13.3986 4.56263 14C4.56263 14.6014 5.03556 15.0889 5.61896 15.0889C6.04029 15.0889 6.40402 14.8346 6.57358 14.4668L15.1259 14.4667V22.4H10.9119L9.20906 20.9542C9.22969 20.8693 9.24064 20.7804 9.24064 20.6889C9.24064 20.0875 8.76771 19.6 8.18432 19.6C7.60092 19.6 7.12799 20.0875 7.12799 20.6889C7.12799 21.2903 7.60092 21.7778 8.18432 21.7778C8.34494 21.7778 8.49719 21.7408 8.6335 21.6747L10.4619 23.2269C10.5429 23.2957 10.6447 23.3333 10.7497 23.3333H15.1259L15.1259 23.7766C14.7955 26.1645 12.7994 28 10.3983 28C8.18503 28 6.32413 26.4405 5.78757 24.3265C4.18209 23.6034 3.0597 21.9484 3.0597 20.0223C3.0597 19.5683 3.12209 19.1292 3.23857 18.7139C1.80313 17.9425 0.81662 16.4015 0.790568 14.6198L0.790039 14.4667C0.790039 12.518 1.94869 10.8483 3.59457 10.1497C3.29168 9.57692 3.10491 8.929 3.06691 8.2399L3.06274 8.14705C3.05667 8.05069 3.05359 7.95349 3.05359 7.85556C3.05359 5.92483 4.25089 4.28236 5.92187 3.67408C6.42999 1.56379 8.27531 0 10.4739 0Z" fill="url(#paint0_linear_35420_8016)"/>
<path fill-rule="evenodd" clip-rule="evenodd" d="M25.8515 3.72804C25.3621 1.59046 23.5042 0 21.2869 0C18.9014 0 16.9318 1.84095 16.6349 4.22356V23.7766C16.9653 26.1645 18.9614 28 21.3625 28C23.5758 28 25.4367 26.4405 25.9732 24.3265C27.5787 23.6034 28.7011 21.9484 28.7011 20.0223C28.7011 19.5683 28.6387 19.1292 28.5222 18.7139C29.9771 17.9321 30.9708 16.3597 30.9708 14.5475C30.9708 12.9168 30.1662 11.4804 28.9451 10.6396C28.9394 10.7303 28.9083 10.8201 28.8503 10.8972C27.9412 12.1041 26.9138 12.8636 25.7827 13.1743C25.762 13.2308 25.7416 13.2922 25.7222 13.3582C25.6259 13.6868 25.5757 14.053 25.5942 14.4457C25.6096 14.7732 25.6727 15.1056 25.7907 15.4411C25.8764 15.6846 25.7548 15.9539 25.5192 16.0425C25.2836 16.131 25.0232 16.0054 24.9375 15.7618C24.7879 15.3364 24.7072 14.9112 24.6874 14.4913C24.6681 14.0803 24.7071 13.6917 24.7896 13.3318C23.6471 13.3851 22.4128 13.0244 21.0996 12.2489C20.8819 12.1204 20.8062 11.8337 20.9305 11.6087C21.0549 11.3836 21.3322 11.3054 21.5499 11.4339L21.6303 11.4809C24.2804 13.0111 26.4002 12.509 28.14 10.1988C28.4973 9.54227 28.7011 8.78456 28.7011 7.97765C28.7011 6.03188 27.5161 4.37224 25.8515 3.72804ZM18.892 19.5399C18.799 19.2992 18.9122 19.0261 19.145 18.9299C19.3695 18.8371 19.6231 18.9427 19.7244 19.1661L19.735 19.1913L19.7545 19.2334C19.7944 19.315 19.8535 19.4131 19.933 19.5162C20.0637 19.6857 20.2237 19.8333 20.4147 19.9462C20.8818 20.2221 21.4912 20.2713 22.2942 19.9949C22.9528 19.5543 23.7721 19.3443 24.7434 19.3733C24.994 19.3808 25.1913 19.5969 25.184 19.856C25.1768 20.115 24.9678 20.319 24.7172 20.3115C22.9307 20.2581 21.8774 21.1356 21.4506 23.0488C21.3942 23.3014 21.1505 23.4589 20.9062 23.4006C20.662 23.3424 20.5096 23.0904 20.5659 22.8379C20.7152 22.169 20.9383 21.5941 21.2329 21.1157C20.7603 21.1037 20.3368 20.9811 19.9643 20.7611C19.4417 20.4524 19.1071 20.0184 18.9183 19.6016L18.914 19.592L18.892 19.5399ZM20.961 4.37971C20.7104 4.38579 20.5119 4.60076 20.5178 4.85987C20.5369 5.70133 20.7125 6.42386 21.0393 7.02207C20.2655 7.07863 19.5097 7.50036 18.8222 8.34774C18.661 8.5463 18.6861 8.8423 18.8782 9.00886C19.0703 9.17542 19.3566 9.14948 19.5177 8.95092C20.0787 8.25954 20.6359 7.96685 21.1838 7.95443C21.4037 7.94945 21.6144 7.9908 21.8109 8.06652C21.9304 8.11256 22.0299 8.16514 22.1048 8.21391L22.1424 8.23955L22.1658 8.25667C22.176 8.26372 22.1865 8.27029 22.1971 8.2762C22.7115 8.61669 23.3414 8.85624 24.0832 8.99127C24.3301 9.03622 24.5655 8.86575 24.6089 8.6105C24.6524 8.35526 24.4875 8.1119 24.2406 8.06695C23.6119 7.95248 23.0924 7.7588 22.6784 7.48206L22.6381 7.45303L22.5918 7.42177C21.8317 6.87215 21.4523 6.02001 21.4254 4.83785C21.4196 4.57874 21.2116 4.37363 20.961 4.37971Z" fill="url(#paint1_linear_35420_8016)"/>
<path d="M54.7645 8.18812C54.1655 8.18812 53.6637 8.00201 53.259 7.62979C52.8705 7.24139 52.6762 6.76399 52.6762 6.19757C52.6762 5.63116 52.8705 5.16184 53.259 4.78963C53.6637 4.40123 54.1655 4.20703 54.7645 4.20703C55.3635 4.20703 55.8572 4.40123 56.2457 4.78963C56.6504 5.16184 56.8528 5.63116 56.8528 6.19757C56.8528 6.76399 56.6504 7.24139 56.2457 7.62979C55.8572 8.00201 55.3635 8.18812 54.7645 8.18812Z" fill="black"/>
<path d="M56.44 9.79026V22.5386H53.0404V9.79026H56.44Z" fill="black"/>
<path d="M40.8901 21.8916C41.8452 22.2962 42.9137 22.4985 44.0954 22.4985C45.3419 22.4985 46.4184 22.2719 47.325 21.8188C48.2315 21.3495 48.9195 20.7264 49.389 19.9496C49.8584 19.1728 50.0932 18.3313 50.0932 17.425C50.0932 16.3731 49.8423 15.3835 49.3404 14.7362C48.8386 14.0888 48.2396 13.6033 47.5435 13.2797C46.8474 12.956 45.949 12.6323 44.8482 12.3087C44.0388 12.0659 43.4074 11.8555 42.9541 11.6775C42.5171 11.4833 42.1447 11.2406 41.8372 10.9493C41.5458 10.6418 41.4001 10.1215 41.4001 9.66835C41.4001 9.02102 41.5943 8.52743 41.9828 8.18759C42.3876 7.84774 42.9218 7.67781 43.5855 7.67781C44.3463 7.67781 44.9534 7.87201 45.4067 8.26041C45.8761 8.63263 46.127 9.11003 46.1594 9.69263H49.8989C49.7856 8.1714 49.1785 6.99002 48.0777 6.14849C46.9931 5.29078 45.5766 4.86192 43.8283 4.86192C42.6628 4.86192 41.6267 5.06422 40.7202 5.4688C39.8136 5.8572 39.1094 6.42361 38.6076 7.16804C38.1058 7.91247 37.8548 8.78637 37.8548 9.78973C37.8548 10.8578 38.0977 11.8555 38.5833 12.5029C39.0851 13.134 39.676 13.6114 40.3559 13.9351C41.052 14.2426 41.9505 14.5581 43.0513 14.8818C43.8607 15.1084 44.492 15.3188 44.9453 15.513C45.4148 15.691 45.8033 15.9418 46.1109 16.2655C46.4184 16.5891 46.5722 17.1418 46.5722 17.6435C46.5722 18.2585 46.3456 18.7601 45.8923 19.1485C45.439 19.5208 44.8158 19.7069 44.0226 19.7069C43.2455 19.7069 42.6304 19.5046 42.1771 19.1C41.74 18.6954 41.4972 18.1452 41.4486 17.4493H37.8063C37.8225 18.485 38.1058 19.3832 38.6562 20.1438C39.2066 20.9044 39.9512 21.487 40.8901 21.8916Z" fill="black"/>
<path fill-rule="evenodd" clip-rule="evenodd" d="M59.7259 11.9389C59.1917 12.9908 58.9246 14.1965 58.9246 15.5559C58.9246 16.9314 59.1917 18.1533 59.7259 19.2214C60.2763 20.2733 61.021 21.0905 61.9599 21.6731C62.8988 22.2557 63.9348 22.547 65.068 22.547C66.0717 22.547 66.954 22.3447 67.7148 21.9402C68.4756 21.5356 69.0665 21.0015 69.4874 20.338V22.3286H72.9355V4.36513H69.4874V10.7494C69.018 10.1183 68.3866 9.6166 67.5934 9.24438C66.8002 8.85598 65.9665 8.66179 65.0923 8.66179C63.9429 8.66179 62.8988 8.94499 61.9599 9.51141C61.021 10.0778 60.2763 10.887 59.7259 11.9389ZM69.0261 13.4925C69.3498 14.0751 69.5117 14.7791 69.5117 15.6044C69.5117 16.4298 69.3498 17.1418 69.0261 17.7406C68.7023 18.3232 68.2652 18.7763 67.7148 19.1C67.1644 19.4075 66.5735 19.5612 65.9422 19.5612C65.327 19.5612 64.7443 19.3994 64.1938 19.0757C63.6596 18.7521 63.2226 18.2908 62.8826 17.692C62.5588 17.0771 62.3969 16.365 62.3969 15.5559C62.3969 14.7467 62.5588 14.0508 62.8826 13.4682C63.2226 12.8694 63.6596 12.4163 64.1938 12.1088C64.7281 11.8013 65.3108 11.6476 65.9422 11.6476C66.5735 11.6476 67.1644 11.8094 67.7148 12.1331C68.2652 12.4406 68.7023 12.8937 69.0261 13.4925Z" fill="black"/>
<path d="M96.3419 9.29293C95.6458 9.69751 95.0792 10.2558 94.6421 10.9679V8.88026H91.2425V22.3286H94.6421V15.6287C94.6421 14.3826 94.9092 13.5087 95.4434 13.007C95.9938 12.5053 96.8032 12.2545 97.8716 12.2545H98.7701V8.68606C97.8636 8.68606 97.0541 8.88835 96.3419 9.29293Z" fill="black"/>
<path fill-rule="evenodd" clip-rule="evenodd" d="M88.5523 13.92C88.6539 14.3948 88.7136 14.8288 88.7315 15.2222L79.1147 17.2796C79.3969 18.2122 79.8885 18.8848 80.5893 19.2976C81.2901 19.7103 82.0679 19.8253 82.9227 19.6424C84.5345 19.2976 85.1215 18.522 85.4365 17.4881H88.7315C88.6224 18.8354 88.0981 19.5671 87.2563 20.3868C86.2706 21.3467 85.1501 22.0455 83.5829 22.3807C82.3165 22.6517 81.1175 22.6186 79.9859 22.2814C78.8668 21.9251 77.9122 21.2935 77.1223 20.3868C76.3482 19.4767 75.8173 18.3491 75.5296 17.0039C75.2385 15.643 75.26 14.3889 75.594 13.2417C75.9281 12.0945 76.5345 11.1373 77.4133 10.3701C78.2922 9.60286 79.3806 9.08039 80.6787 8.80269C81.9293 8.53514 83.1028 8.56541 84.1994 8.8935C85.3118 9.2182 86.2437 9.82147 86.9952 10.7033C87.7591 11.566 88.2781 12.6382 88.5523 13.92ZM84.9062 13.7071C84.7076 12.8559 84.2533 12.2415 83.5434 11.8638C82.8302 11.4702 82.0383 11.3666 81.1676 11.5529C80.3444 11.729 79.7021 12.1312 79.2405 12.7595C78.7914 13.3686 78.5983 14.1298 78.6612 15.0431L84.9062 13.7071Z" fill="black"/>
<defs>
<linearGradient id="paint0_linear_35420_8016" x1="26.4712" y1="27.2465" x2="3.06711" y2="5.13248" gradientUnits="userSpaceOnUse">
<stop stop-color="#32C5FF"/>
<stop offset="0.25" stop-color="#5666F5"/>
<stop offset="0.523727" stop-color="#8A57EA"/>
<stop offset="0.820607" stop-color="#EB35CE"/>
<stop offset="1" stop-color="#F7B500"/>
</linearGradient>
<linearGradient id="paint1_linear_35420_8016" x1="26.4712" y1="27.2465" x2="3.06711" y2="5.13248" gradientUnits="userSpaceOnUse">
<stop stop-color="#32C5FF"/>
<stop offset="0.25" stop-color="#5666F5"/>
<stop offset="0.523727" stop-color="#8A57EA"/>
<stop offset="0.820607" stop-color="#EB35CE"/>
<stop offset="1" stop-color="#F7B500"/>
</linearGradient>
</defs>
</svg>
