<svg width="80" height="80" viewBox="0 0 80 80" fill="none" xmlns="http://www.w3.org/2000/svg">
<path d="M44.5095 27.8919C44.5267 27.7326 44.5355 27.5707 44.5355 27.4068C44.5355 24.9382 42.5342 22.9369 40.0656 22.9369C37.597 22.9369 35.5957 24.9382 35.5957 27.4068C35.5957 27.4119 35.5957 27.417 35.5957 27.4221H35.5819L36.5892 48.7286C36.5891 48.74 36.589 48.7515 36.589 48.7629C36.589 50.683 38.1455 52.2395 40.0656 52.2395C41.9857 52.2395 43.5422 50.683 43.5422 48.7629C43.5422 48.7313 43.5418 48.6997 43.5409 48.6683L44.5095 27.8919ZM29.1332 12.9647C35.0782 2.81468 44.7298 2.83645 50.6621 12.9647L77.2323 58.3285C83.1773 68.4786 78.4654 76.7068 66.6771 76.7068H13.1182C1.34367 76.7068 -3.36932 68.4568 2.56296 58.3285L29.1332 12.9647ZM40.0656 66.6424C42.5342 66.6424 44.5355 64.6412 44.5355 62.1726C44.5355 59.7039 42.5342 57.7027 40.0656 57.7027C37.597 57.7027 35.5957 59.7039 35.5957 62.1726C35.5957 64.6412 37.597 66.6424 40.0656 66.6424Z" fill="white"/>
</svg>
