<svg width="36" height="32" viewBox="0 0 36 32" fill="none" xmlns="http://www.w3.org/2000/svg">
<path d="M16.4674 1.24993C17.0308 0.250025 18.4286 0.250025 18.992 1.24993L34.7583 29.232C35.3353 30.2562 34.6019 31.5 33.496 31.5H1.96349C0.857523 31.5 0.124122 30.2562 0.701204 29.232L16.4674 1.24993Z" fill="white" stroke="black"/>
<path d="M17.7029 4.47797C17.7079 4.46917 17.7115 4.46536 17.7126 4.46427C17.7139 4.46306 17.7146 4.46259 17.7152 4.46227C17.7167 4.46143 17.7216 4.45935 17.7295 4.45935C17.7374 4.45935 17.7423 4.46143 17.7438 4.46227C17.7444 4.46259 17.7451 4.46306 17.7463 4.46427C17.7474 4.46536 17.7511 4.46917 17.7561 4.47797L31.856 29.1962C31.861 29.205 31.8628 29.2108 31.8636 29.2138C31.8641 29.2157 31.8644 29.2176 31.8645 29.2195C31.8646 29.2206 31.8646 29.2218 31.8646 29.2229C31.8645 29.2299 31.8623 29.2404 31.856 29.2515C31.8496 29.2627 31.8431 29.2675 31.8413 29.2686L31.8401 29.2692C31.84 29.2692 31.8369 29.2702 31.8294 29.2702H3.62962C3.6221 29.2702 3.61901 29.2692 3.6189 29.2692L3.61773 29.2686C3.61592 29.2675 3.60937 29.2627 3.60301 29.2515C3.59666 29.2404 3.59449 29.2299 3.59437 29.2229C3.59431 29.2198 3.59463 29.2169 3.59543 29.2138C3.59618 29.2108 3.59799 29.205 3.60301 29.1962L17.7029 4.47797Z" fill="white" stroke="#BB0202" stroke-width="2"/>
<path d="M16.9977 21.4373L16.5132 14.5104L16.4724 13.3145C16.4438 12.4746 17.1169 11.7781 17.9574 11.7781C18.7978 11.7781 19.471 12.4746 19.4423 13.3145L19.4015 14.5104L18.917 21.4373H16.9977ZM17.9667 25.678C16.9977 25.678 16.3082 24.9995 16.3082 24.0459C16.3082 23.0924 17.0163 22.4322 17.9667 22.4322C18.8984 22.4322 19.6065 23.0924 19.6065 24.0459C19.6065 24.9995 18.8984 25.678 17.9667 25.678Z" fill="black"/>
</svg>
