<svg width="15" height="14" viewBox="0 0 15 14" fill="none" xmlns="http://www.w3.org/2000/svg">
<g clip-path="url(#clip0_14452_3251)">
<path d="M13.1012 9.58501V11.0004C13.1012 11.5604 13.1012 11.8405 12.9922 12.0544C12.8963 12.2425 12.7433 12.3955 12.5552 12.4914C12.3413 12.6004 12.0612 12.6004 11.5012 12.6004H10.0856M13.1012 4.41578V3.00039C13.1012 2.44034 13.1012 2.16031 12.9922 1.9464C12.8963 1.75824 12.7433 1.60526 12.5552 1.50938C12.3413 1.40039 12.0612 1.40039 11.5012 1.40039H10.0856M4.91599 12.6004H3.50039C2.94034 12.6004 2.66031 12.6004 2.4464 12.4914C2.25824 12.3955 2.10526 12.2425 2.00938 12.0544C1.90039 11.8405 1.90039 11.5604 1.90039 11.0004V9.58501M1.90039 4.41578V3.00039C1.90039 2.44034 1.90039 2.16031 2.00938 1.9464C2.10526 1.75824 2.25824 1.60526 2.4464 1.50938C2.66031 1.40039 2.94034 1.40039 3.50039 1.40039H4.91599" stroke="#6592f7" stroke-linecap="round" stroke-linejoin="round"/>
<path d="M4.52539 4.375H10.4758" stroke="#6592f7" stroke-linecap="round"/>
<path d="M4.52539 7H10.4758" stroke="#6592f7" stroke-linecap="round"/>
<path d="M4.52539 9.625H8.02563" stroke="#6592f7" stroke-linecap="round"/>
</g>
<defs>
<clipPath id="clip0_14452_3251">
<rect width="14.001" height="14" fill="white" transform="translate(0.5)"/>
</clipPath>
</defs>
</svg>
